<?xml version="1.0" encoding="utf-8"?>
<!-- Generator: Adobe Illustrator 23.0.3, SVG Export Plug-In . SVG Version: 6.00 Build 0)  -->
<svg version="1.1" id="圖層_1" xmlns="http://www.w3.org/2000/svg" xmlns:xlink="http://www.w3.org/1999/xlink" x="0px" y="0px"
	 viewBox="0 0 247.45 230.55" style="enable-background:new 0 0 247.45 230.55;" xml:space="preserve">
<style type="text/css">
	.st0{opacity:0.61;}
	.st1{fill:#060303;}
	.st2{fill:#F39700;}
	.st3{fill:#B5B5B5;}
	.st4{fill:#94B53C;}
	.st5{fill:#637931;}
	.st6{fill:#8CA23E;}
	.st7{fill:#B8D15A;}
	.st8{fill:#2F3B1C;}
	.st9{fill:#CCCCCC;}
	.st10{fill:#FFFFFF;}
	.st11{fill:#1A1A1A;}
	.st12{fill:#F2F2F2;}
	.st13{fill:#9F5023;}
	.st14{fill:#E98530;}
	.st15{fill:#F39B35;}
	.st16{fill:#F9C889;}
</style>
<g>
	<g>
		<g class="st0">
			<g>
				<ellipse class="st1" cx="118.3" cy="209.82" rx="118.3" ry="20.72"/>
			</g>
		</g>
		<g>
			<g>
				<g>
					<path class="st2" d="M57.63,117.37c0,0-9.67,12.26-14.26,17.05s-17.38,17.93-18.84,21.84c-1.46,3.91,13.79,5.65,24.1,10.05
						s15.91,14.27,14.79-3.85C62.31,144.34,57.63,117.37,57.63,117.37z"/>
					<path class="st3" d="M49.62,129.49c0,0-13.33,17.29-15.47,16.94c-2.15-0.35,13.88,8.54,14.15,12.14
						c0.27,3.6,9.29-0.69,9.29-0.69l1.14-6.11c0,0-4.68-7.05-4.15-11.62s1.22-9.94,1.22-9.94L49.62,129.49z"/>
				</g>
				<path class="st4" d="M59.39,52.9C47.23,77.39,44.96,91,45.73,105.96s-1.5,38.77,5.35,47.61s14.46,20.4,14.46,25.84
					s-12.16,6.81-19.77,11.57s-7.6,10.21-6.08,12.93c1.52,2.72,34.22,1.34,45.62-0.02s11.4-6.13,11.4-6.13s28.9-0.69,32.7-0.7
					c3.8,0,9.13,8.16,9.13,8.16s38.31,8.14,57.03,3.37s3.56-21.77-4.57-21.08c-8.13,0.68,34.95-51.71,34.94-87.08
					c-0.02-35.37-8.39-49.65-18.28-60.53s-14.33-23-57.68-27.06S71.54,28.41,59.39,52.9z"/>
				<path class="st5" d="M210.19,38.55c-3.49,2.01-2.77,4.46-6.65,5.69c-6.21,1.97,1.06,13.92-1.59,32.43
					c-0.71,4.94-4.54,20.55-14.38,29.69c8.05-12.24,9.6-27.61,9.62-31.44c0.02-3.83-1.64-26.87-6.85-25.59
					c-4.89,1.21,5.12-8.93,5.12-8.93L210.19,38.55z"/>
				<path class="st5" d="M207.69,108.79c-1.88,0.69-1.76,1.94-3.76,2.22c-3.2,0.45-0.79,6.85-3.82,15.62
					c-0.81,2.34-4.14,9.6-9.77,13.24c5.06-5.29,7.26-12.62,7.63-14.48c0.37-1.86,1.73-13.18-0.92-12.98
					c-2.49,0.19,3.33-3.92,3.33-3.92L207.69,108.79z"/>
				<path class="st5" d="M223.75,67.29c-1.88,0.69-1.76,1.94-3.76,2.22c-3.2,0.45-0.79,6.85-3.82,15.62
					c-0.81,2.34-4.14,9.6-9.77,13.24c5.06-5.29,7.26-12.62,7.63-14.48c0.37-1.86,1.73-13.18-0.92-12.98
					c-2.49,0.19,3.33-3.92,3.33-3.92L223.75,67.29z"/>
				<path class="st6" d="M41.73,200.7c-0.51-3.11,12.48,6.57,10.48,1.62c-3.05-7.52,10.91-0.9,24.57-10.81
					c-14.88,5.52-27.85,4.61-25.92,1.87c-3.02-2.54-7.75,0.43-7.75,0.43L41.73,200.7z"/>
				<path class="st6" d="M192.46,204.77c0,0-9.07-0.32-20.13-9.42c12.23,4.69,23.07,3.12,21.55,0.51c2.6-2.67,6.45,0.02,6.45,0.02
					s0.51,3.07,0.86,6.06C201.74,206.77,192.76,205.08,192.46,204.77z"/>
				<path class="st7" d="M50.14,70.8c4.81-8.92,26.74-51.68,87.64-35.37C88.51,35,60.59,63.26,56.31,89.62
					c4.87-15.4,24.91-38.93,68.38-36.74c-53.54,7.3-65.06,29.24-70.03,64.28c2.84-17.81,12.56-23.38,20.05-25.37
					c-12.45,7.49-24.33,34.03-17.03,57.77c4.27,13.9-1.55,14.88-5.55,2.24C39.42,111.6,50.14,70.8,50.14,70.8z"/>
				<path class="st8" d="M217.29,57.62c2.05-1.72,4.18-3.44,5.56-5.89c0.94-1.67-1.59-5.25-3.66-4.67c-2.79,0.79-5.01,2.5-7.16,4.14
					c-1.79,1.36-3.97,2.09-3.13,5.65c0.23,0.97,1.19,2.18,2.13,2.68C214.37,61.28,215.67,58.97,217.29,57.62z"/>
				<path class="st8" d="M225.29,72.37c-4.98,1.49-7.99,4.43-11.28,6.7c-2.93,2.03-8.45,4.54-6.85,7.14
					c0.51,0.83,2.01,1.23,3.73,1.19c5.13-0.12,8.12-3.58,10.72-5.43c3.16-2.24,7.95-4.74,9.04-7.43
					C231.17,73.27,228.12,71.53,225.29,72.37z"/>
				<path class="st8" d="M51.53,72.95c-2.59-1.07-5.17-1.86-7.95-2.44c-2.28-0.47-5.25-1.46-7.55-0.49c-1.6,0.68-1.34,2.46-0.32,3.4
					c1.88,1.74,4.82,2.14,7.34,2.7c2.69,0.59,5.3,0.94,8.09,0.99C53.64,77.15,53.2,73.64,51.53,72.95z"/>
				<path class="st8" d="M47.2,88.4c-2.75-0.54-5.4-0.87-8.15-1.03c-2.26-0.13-5.33-0.57-7.09,0.36c-1.22,0.65-0.34,1.92,0.93,2.51
					c2.35,1.1,5.18,1.11,7.69,1.28c2.67,0.18,5.19,0.18,7.76-0.05C50.65,91.27,48.98,88.75,47.2,88.4z"/>
				<path class="st8" d="M59.13,155.32c-2.03,1.09-3.87,2.26-5.67,3.6c-1.47,1.1-3.64,2.43-4.16,3.97c-0.36,1.08,0.97,1.47,2.11,1.2
					c2.12-0.5,3.88-1.98,5.53-3.19c1.76-1.29,3.32-2.61,4.76-4.12C63.01,155.44,60.44,154.62,59.13,155.32z"/>
				<path class="st8" d="M65.48,158.69c-2.03,1.09-3.87,2.26-5.67,3.6c-1.47,1.1-3.64,2.43-4.16,3.97c-0.36,1.08,0.97,1.47,2.11,1.2
					c2.12-0.5,3.88-1.98,5.53-3.19c1.76-1.29,3.32-2.61,4.76-4.12C69.36,158.8,66.79,157.99,65.48,158.69z"/>
				<ellipse class="st9" cx="86.37" cy="84.85" rx="19" ry="17.68"/>
				<ellipse class="st10" cx="86.86" cy="85.31" rx="12.67" ry="11.79"/>
				<g>
					<ellipse class="st11" cx="86.49" cy="84.97" rx="13.03" ry="12.13"/>
					<ellipse class="st12" cx="83.2" cy="79.87" rx="6.82" ry="6.35"/>
				</g>
				<g>
					<ellipse class="st9" cx="168.21" cy="87.54" rx="19.73" ry="18.36"/>
					<ellipse class="st10" cx="168.72" cy="88.01" rx="13.15" ry="12.24"/>
				</g>
				<path class="st5" d="M70.79,127.37c0,0,13.45,24.71,28.29,0.53c-1.41,6.44,8.22,14.39,9.13,14.34s12.22,5.68,16.71-9.43
					c1.54-4.33,2.91,16.81,17.94,9.6c15.03-7.21,14.81,3.41,22.84,0.84c8.04-2.57,14.76-11.44,15.67-11.49s-13.35,4.99-13.35,4.99
					s-3.09,8.66-13.9-3.46s-9.92,13.57-23.99,1.49c-14.07-12.08-6.48,6.59-23.52-3.07s-8.81,4.74-22.84-0.84
					C69.74,125.31,70.79,127.37,70.79,127.37z"/>
				<path class="st5" d="M204.8,205.19"/>
				<g>
					<ellipse class="st7" cx="41.82" cy="132.83" rx="7.31" ry="11.22"/>
					<path class="st6" d="M45.81,121.53c0,0-5.49-0.97-7.17,2.12c-1.68,3.08,6.99-0.61,6.8,0.91c-0.18,1.51-1.2,5.92,0.77,6.62
						s4.15-1.98,3.2-4.6C48.48,123.94,45.81,121.53,45.81,121.53z"/>
				</g>
				<path class="st4" d="M37.15,123.35c0,0,10.4,8.63,7.73,10.72c-2.66,2.09,1.47,9.66-0.62,14.04s-9.66,9.35-17.52,7.13
					S8.25,132.95,12.8,127.13s17.95-8.43,21.15-6.11C37.15,123.35,37.15,123.35,37.15,123.35z"/>
				<path class="st7" d="M16.64,137.06c0.25-2.27,1.19-13.04,16.58-16.16c-11.24,5.06-14.92,13.58-13.4,19.25
					c-0.35-3.56,1.98-10.32,12.07-14.43c-11.48,7.04-12.03,12.59-9.84,20.06c-1.04-3.83,0.65-5.95,2.16-7.13
					c-2.12,2.79-2.31,9.29,1.59,13.23c2.29,2.31,1.05,3.11-1.05,1.02C18.06,146.27,16.64,137.06,16.64,137.06z"/>
				<g>
					<ellipse class="st11" cx="168.33" cy="87.88" rx="13.76" ry="12.58"/>
					<ellipse class="st12" cx="164.86" cy="82.59" rx="7.2" ry="6.59"/>
				</g>
				<path class="st13" d="M210.33,131.49c0,0-114.72,48.1-139.06,42.3c-24.34-5.8,4.79,6.98,4.79,6.98s49.83-3.47,99.01-24.66
					s47.97-16.74,47.97-16.74L216.48,129"/>
				<g>
					<path class="st2" d="M211.48,110.41c0,0-23.36,48.3-28.47,48.3s35.81,15.63,38.01,24.47s21.19-5.45,21.19-5.45l-0.01-15.64
						c0,0-13.89-15.64-14.63-27.2s-1.47-25.17-1.47-25.17L211.48,110.41z"/>
					<path class="st3" d="M209.54,114.42c0,0-22.14,44.64-26.92,44.61s33.35,14.69,35.35,22.9S237.8,177,237.8,177l0.1-14.5
						c0,0-12.87-14.57-13.49-25.29s-1.21-23.33-1.21-23.33L209.54,114.42z"/>
				</g>
				<path class="st4" d="M221.57,120.84c0,0-14.61,5.45-12.42,8.17s-5.11,8.84-4.38,13.61c0.73,4.76,7.31,11.56,16.81,11.55
					c9.5,0,28.49-16.34,25.56-23.14c-2.93-6.8-16.81-12.91-21.2-11.55C221.57,120.84,221.57,120.84,221.57,120.84z"/>
				<g>
					
						<ellipse transform="matrix(0.6653 -0.7466 0.7466 0.6653 -28.9987 206.3847)" class="st7" cx="215.67" cy="135.53" rx="11.55" ry="6.94"/>
					<path class="st6" d="M219.94,124.35c0,0,4.89,2.27,4.18,5.65s-5.03-4.35-5.88-3.05c-0.85,1.3-2.94,5.37-4.92,4.83
						s-1.93-3.87,0.52-5.43C216.29,124.8,219.94,124.35,219.94,124.35z"/>
				</g>
				<g>
					<polygon class="st14" points="138.64,173.02 135.78,176.3 132.83,174.06 135.68,170.79 					"/>
					<path class="st15" d="M137.82,172.33l-2.85,3.26c-0.38,0.44-0.31,1.09,0.16,1.45s1.17,0.29,1.55-0.15l2.85-3.26
						c0.38-0.44,0.31-1.09-0.16-1.45C138.9,171.82,138.2,171.88,137.82,172.33z"/>
					<path class="st15" d="M123.56,168.29l8.58,6.48c0.88,0.67,2.18,0.54,2.89-0.28l1.65-1.89c0.71-0.82,0.58-2.02-0.3-2.69
						l-8.58-6.48L123.56,168.29z"/>
					<path class="st16" d="M127.03,163.02c-2.08-1.12-6.14-2.75-7.18-1.56s1.51,4.55,3.12,6.22l0.59,0.61l4.24-4.86L127.03,163.02z"
						/>
				</g>
				<g>
					<polygon class="st14" points="150.62,168.44 147.76,171.71 144.8,169.48 147.66,166.2 					"/>
					<path class="st15" d="M149.8,167.74l-2.85,3.26c-0.38,0.44-0.31,1.09,0.16,1.45s1.17,0.29,1.55-0.15l2.85-3.26
						c0.38-0.44,0.31-1.09-0.16-1.45C150.88,167.24,150.18,167.3,149.8,167.74z"/>
					<path class="st15" d="M135.53,163.71l8.58,6.48c0.88,0.67,2.18,0.54,2.89-0.28l1.65-1.89c0.71-0.82,0.58-2.02-0.3-2.69
						l-8.58-6.48L135.53,163.71z"/>
					<path class="st16" d="M139,158.44c-2.08-1.12-6.14-2.75-7.18-1.56s1.51,4.55,3.12,6.22l0.59,0.61l4.24-4.86L139,158.44z"/>
				</g>
				<g>
					<polygon class="st14" points="161.79,163.25 158.93,166.53 155.98,164.29 158.83,161.02 					"/>
					<path class="st15" d="M160.97,162.56l-2.85,3.26c-0.38,0.44-0.31,1.09,0.16,1.45s1.17,0.29,1.55-0.15l2.85-3.26
						c0.38-0.44,0.31-1.09-0.16-1.45S161.36,162.12,160.97,162.56z"/>
					<path class="st15" d="M146.71,158.52l8.58,6.48c0.88,0.67,2.18,0.54,2.89-0.28l1.65-1.89c0.71-0.82,0.58-2.02-0.3-2.69
						l-8.58-6.48L146.71,158.52z"/>
					<path class="st16" d="M150.18,153.25c-2.08-1.12-6.14-2.75-7.18-1.56s1.51,4.55,3.12,6.22l0.59,0.61l4.24-4.86L150.18,153.25z"
						/>
				</g>
				<g>
					<polygon class="st14" points="172.89,157.39 170.03,160.66 167.08,158.43 169.93,155.15 					"/>
					<path class="st15" d="M172.07,156.69l-2.85,3.26c-0.38,0.44-0.31,1.09,0.16,1.45s1.17,0.29,1.55-0.15l2.85-3.26
						c0.38-0.44,0.31-1.09-0.16-1.45C173.15,156.18,172.45,156.25,172.07,156.69z"/>
					<path class="st15" d="M157.81,152.66l8.58,6.48c0.88,0.67,2.18,0.54,2.89-0.28l1.65-1.89c0.71-0.82,0.58-2.02-0.3-2.69
						l-8.58-6.48L157.81,152.66z"/>
					<path class="st16" d="M161.28,147.39c-2.08-1.12-6.14-2.75-7.18-1.56s1.51,4.55,3.12,6.22l0.59,0.61l4.24-4.86L161.28,147.39z"
						/>
				</g>
				<path class="st6" d="M101.7,66.55c0,0,2.64,7.43,5.34,11.16c1.32,1.82,2.65,2.76,3.7,1.52c2.45-2.92,5.62-10.4,6.94-13.68
					c0.39-0.97,0.62-1.58,0.62-1.58s1.4,5.91,3.18,9.96c0.96,2.19,2.03,3.83,3.04,3.72c2.9-0.33,12.15-2.76,13.62-8.41
					c1.46-5.65-2.44-1.78-5.08,0.58c-2.63,2.36-16.43,9.41-22.85,5.35"/>
			</g>
		</g>
	</g>
	<path class="st8" d="M170.36,15.21c2.07-1.68,4.22-3.39,5.79-5.58c1.07-1.49-0.73-4.1-2.66-3.34c-2.61,1.02-4.84,2.72-6.99,4.36
		c-1.79,1.35-3.85,2.25-3.58,5.06c0.08,0.77,0.77,1.63,1.55,1.91C167.24,18.61,168.72,16.54,170.36,15.21z"/>
	<path class="st8" d="M144.22,9.74c0.33-2.65,0.7-5.37,0.31-8.03c-0.27-1.82-3.36-2.45-4.23-0.57c-1.18,2.55-1.6,5.32-2.03,7.99
		c-0.35,2.22-1.22,4.29,0.93,6.13c0.59,0.5,1.69,0.64,2.44,0.3C144.33,14.35,143.96,11.83,144.22,9.74z"/>
	<path class="st8" d="M112.32,15.21c-2.07-1.68-4.22-3.39-5.79-5.58c-1.07-1.49,0.73-4.1,2.66-3.34c2.61,1.02,4.84,2.72,6.99,4.36
		c1.79,1.35,3.85,2.25,3.58,5.06c-0.08,0.77-0.77,1.63-1.55,1.91C115.44,18.61,113.96,16.54,112.32,15.21z"/>
</g>
</svg>
